<svg xmlns="http://www.w3.org/2000/svg" viewBox="0 0 96 96" width="96" height="96"><defs><linearGradient id="g" gradientTransform="rotate(11 .5 .5)"><stop offset="0" stop-color="#d1d4f9"/><stop offset="1" stop-color="#e9d5ff"/></linearGradient></defs><rect width="96" height="96" fill="url(#g)"/><g transform="translate(24 24) scale(2)" fill="none" stroke="#1d4ed8" stroke-width="1.8" stroke-linecap="round" stroke-linejoin="round">
  
  <path d="M6.5 7h11" />
  <path d="M6.5 17h11" />
  <path d="M6 20v-2a6 6 0 1 1 12 0v2a1 1 0 0 1 -1 1h-10a1 1 0 0 1 -1 -1z" />
  <path d="M6 4v2a6 6 0 1 0 12 0v-2a1 1 0 0 0 -1 -1h-10a1 1 0 0 0 -1 1z" />
</g></svg>