<svg xmlns="http://www.w3.org/2000/svg" viewBox="0 0 256 256" fill="none" shape-rendering="auto" width="96" height="96"><metadata xmlns:rdf="http://www.w3.org/1999/02/22-rdf-syntax-ns#" xmlns:xsi="http://www.w3.org/2001/XMLSchema-instance" xmlns:dc="http://purl.org/dc/elements/1.1/" xmlns:dcterms="http://purl.org/dc/terms/"><rdf:RDF><rdf:Description><dc:title>Croodles - Doodle your face</dc:title><dc:creator>vijay verma</dc:creator><dc:source xsi:type="dcterms:URI">https://www.figma.com/community/file/966199982810283152</dc:source><dcterms:license xsi:type="dcterms:URI">https://creativecommons.org/licenses/by/4.0/</dcterms:license><dc:rights>Remix of „Croodles - Doodle your face” (https://www.figma.com/community/file/966199982810283152) by „vijay verma”, licensed under „CC BY 4.0” (https://creativecommons.org/licenses/by/4.0/)</dc:rights></rdf:Description></rdf:RDF></metadata><mask id="viewboxMask"><rect width="256" height="256" rx="0" ry="0" x="0" y="0" fill="#fff" /></mask><g mask="url(#viewboxMask)"><rect fill="#ccfbf1" width="256" height="256" x="0" y="0" /><path d="M174.2 103.2c.4.4.5 1 .3 1.5.3.1.5.3.7.6 2.3 4.5 4.5 9.8 6.4 15.5l.7-.2 1.7-.7c1-.3 2.1-.6 3.3-.7 1.1 0 2.4.1 3.5.9 1 .7 1.8 2 2.2 3.5 1.3 5.7 1.3 9.3 0 15.2a7 7 0 0 1-2.1 4c-1 .7-2 1-3 1.1a159.9 159.9 0 0 1 2.6 21.4c0 2.7-.1 5-.4 7-.4 2-1 3.7-1.9 5a38.7 38.7 0 0 1-18.6 10.3 150.8 150.8 0 0 1-59.5 4.1 62 62 0 0 1-24-7.5c-4.3-2.7-7.3-8-9.4-14.3a91.6 91.6 0 0 1-4.1-22.5c-3.3 0-7.4-3.2-9.8-11.2-1.3-4.7-1-8.7 1.1-11.2 2.2-2.4 5.7-2.8 9.5-1.7.8-5.8 2.2-10.7 4.1-14l.5-.4a38 38 0 0 1 16.2-12.6 90.5 90.5 0 0 1 26.2-7.5c19.2-2.5 40.6.5 53.8 14.4Z" fill="#ffffff"/><g stroke="#000" stroke-width="3" stroke-linecap="round" stroke-linejoin="round"><path d="M174.8 105c11.3 21.8 19.2 65 13.4 72.3C175 194 109 199 86 184.2c-15.5-10-16.5-61.2-8.3-75M183 121.7c3-1 8.5-3.8 9.8 1.8 1.3 5.6 1.3 9 0 15-.7 3-2.3 4-4.3 4"/><path d="M72.2 124.3c-7.6-2.4-12.1 2-9.4 11.4 2.6 9 7 10.8 9.4 10.3"/></g><g transform="translate(112 122)"><path d="M21.7 10c5 4 12 23 6 29S19 34.3 14 34.3c-5.1 0-9 6-8.5-1 .4-5.6 4-5.5 4.7-5.8" stroke="#000" stroke-width="3" stroke-linecap="round" stroke-linejoin="round"/></g><g transform="translate(63 112)"></g><g transform="translate(98 168)"><path d="M44.4 6.5c-4.2 2-20.4 6.7-30.4 4.2 6.2 10 35 11.4 39.6 2.5 5-9.4-4.1-9.3-9.2-6.7Z" stroke="#000" stroke-width="3" stroke-linecap="round" stroke-linejoin="round"/></g><g transform="translate(-3 -1)"><g stroke="#0fa958" stroke-width="3" stroke-linecap="round" stroke-linejoin="round"><path d="M127.5 87c-10.5-1.6-24.5-2.6-41 20M132.5 85c17.5-14 44.5 4.4 48 23.4M132 90.7c4 18.2 23 31.2 48 24.2"/><path d="M132 86.2c10 12.5 28 20 45 24M79.5 121.4c10 9.5 45-4 48.3-27.5M81.5 109c1-22.6 39-36.8 48.5-24.3M128 90.4c-28 6.2-21 18-42.5 23"/><path d="M121.3 97c-7 9.5-13.4 16-34.4 21.7M79.5 113C77 97.3 66 88.7 55.3 92 35 98.3 36 129.3 18 128.3"/><path d="M78.5 115c0-6.6-4.7-16.8-18.7-19.3s-35 2-33 44 2 43.4 1.5 55"/><path d="M68.5 109c-10-5-26.8.8-34 28.4-9 34.5-23.2 67.3-13.7 94.8"/><path d="M78.3 118.7c-6.5-9.5-23.8-8-29 4-6.5 15-17 81-21 90"/><path d="M78.8 119.2c-2.5-3-13.5-3-20.5 12s-15.5 54.5-3.5 92"/><path d="M78.8 120.7c-6-8.5-19.9-3.3-25.5 8.7-7 15-9.5 78-13.5 94M183 107c0-14.5 22.4-23.4 30-11.8 9.5 14.5 14 97.3 5 129.8"/><path d="M185 109c6.5-8.6 24.7-22 43.5-13.3 23.5 11 30 46 17.5 79s-17 46.2-3.5 54.2"/><path d="M181.5 110.7c7-15.5 40.6-19.3 51 1.5 13 26 5.5 42-5 98"/><path d="M184 110.4c16-9.5 46.9-12.5 60.5 16.3 13.6 28.8 5.7 70.7 0 88"/><path d="M183.5 114c9-9 37.8-11.7 47 10.7 11.5 28-2 68.5 5 92.5"/><path d="M183 112.4c1.5-.5 37.5-5.7 45 31.3s-3.5 65.5 2.5 81.5"/><path d="M183 113.4c5.5-8.5 22.6-2.3 29 21.3 6.4 23.6 10 67.2 11 86M134.5 85.7c5.8-1.2 26 0 39 18.7M7.3 232.7c-2.5-3.2-6-14.6 0-35 7.5-25.5 18.5-62.5 21-70s17-24.5 31-24.5 17.7 7.2 19.2 14.2"/><path d="M73.7 118.6c0 2.8 2.7 5.5 6.3-.4 3.9-6.2 1.9-11-.3-10.3M186.5 114.6c0 3.1-2.8 5.7-6-1.3-3.3-7.6-1.2-12.6.9-11.5"/></g></g><g transform="translate(68 149)"></g><g transform="translate(71 103)"><path d="M26.7 26.3c1-2.5 4.2-7.3 9.9-7.1 5.7.2 8.3 3.4 8.9 5M71.2 24.6c1-2.9 4.2-8.4 9.2-7.7 5 .6 7.5 4.3 8.1 6M25 43c2.7-4 9.5-6.7 15-6.2 6.7.6 4.3 6.6 2.6 7.3-2.2.9-5.2-.9-3.3-3.3 1.4-2 2.8 0 2.4.8M72.6 38.6c1.7-1.7 6.5-5.2 11.4-5 6.1.4 7.8 3.4 6 5.5-2 2.2-4.6 2.5-4.6 0 0-2.4 2-2.5 2.8-1" stroke="#000" stroke-width="3" stroke-linecap="round" stroke-linejoin="round"/></g></g></svg>