<svg xmlns="http://www.w3.org/2000/svg" viewBox="0 0 440 440" fill="none" shape-rendering="auto" width="96" height="96"><metadata xmlns:rdf="http://www.w3.org/1999/02/22-rdf-syntax-ns#" xmlns:xsi="http://www.w3.org/2001/XMLSchema-instance" xmlns:dc="http://purl.org/dc/elements/1.1/" xmlns:dcterms="http://purl.org/dc/terms/"><rdf:RDF><rdf:Description><dc:title>Face Generator</dc:title><dc:creator>The Visual Team</dc:creator><dc:source xsi:type="dcterms:URI">https://www.figma.com/community/file/986078800058673824</dc:source><dcterms:license xsi:type="dcterms:URI">https://creativecommons.org/licenses/by/4.0/</dcterms:license><dc:rights>Remix of „Face Generator” (https://www.figma.com/community/file/986078800058673824) by „The Visual Team”, licensed under „CC BY 4.0” (https://creativecommons.org/licenses/by/4.0/)</dc:rights></rdf:Description></rdf:RDF></metadata><mask id="viewboxMask"><rect width="440" height="440" rx="0" ry="0" x="0" y="0" fill="#fff" /></mask><g mask="url(#viewboxMask)"><rect fill="#fde68a" width="440" height="440" x="0" y="0" /><g transform="matrix(.71048 0 0 .71048 24 2)"><g fill="#2c1b18"><path d="M462.3 352C506 292.5 488.8 80 287 80 85 80 56.3 277.5 110.8 352c9.6 18 52.9 88 176.2 88 79.6 0 131.6-28.5 175.3-88Z"/><circle cx="146.6" cy="103" r="77"/><circle cx="411.6" cy="103" r="77"/></g></g><g transform="translate(81.7 150.7) scale(.71856)"><path d="M310 123.1H72.8v167.3c0 31 53 80.6 118.6 80.6 65.5 0 118.6-49.5 118.6-80.6V123Z" fill="#c07f50"/><path d="M72.8 269.9v.8-.8ZM72.8 270.9v19.5c0 31 53 80.6 118.6 80.6 65.5 0 118.6-49.5 118.6-80.6v-20.5.9c0 31.1-53.1 80.6-118.6 80.6C126 351.4 72.9 302 72.8 271Z" fill="#000" fill-opacity=".2"/><ellipse cx="190.5" cy="129" rx="119.5" ry="105" fill="#c07f50"/></g><g transform="translate(199.5 333.4) scale(.71856)"><path d="M82.7 33.4c0 16.9-24.2 4-54.2 4-30 0-54.2 12.9-54.2-4S-1.4 3 28.5 3c30 0 54.2 13.6 54.2 30.5Z" fill="#DE8383"/></g><g transform="translate(280.7 235.4) scale(.71856)"><rect x="27" y="21" width="80" height="80" rx="21.3" fill="#c07f50"/><rect x="35.9" y="29.9" width="62.2" height="62.2" rx="12.4" fill="#000" fill-opacity=".2"/><rect x="28.8" y="44.1" width="17.8" height="35.5" rx="5.3" fill="#c07f50"/></g><g transform="matrix(-.71856 0 0 .71856 161.5 235.4)"><rect x="27" y="21" width="80" height="80" rx="21.3" fill="#c07f50"/><rect x="35.9" y="29.9" width="62.2" height="62.2" rx="12.4" fill="#000" fill-opacity=".2"/><rect x="28.8" y="44.1" width="17.8" height="35.5" rx="5.3" fill="#c07f50"/></g><g transform="translate(114.8 215.5) scale(.71856)"><path d="M183.1 52.7c3.7-3 9.4-8.7 20.4-8.7 9.4 0 17.3 6.4 18.7 8.7M104.3 52.7C100.6 49.7 95 44 84 44c-9.3 0-17.2 6.4-18.7 8.7" stroke="#000" stroke-width="3.7" stroke-linecap="round"/><circle cx="87.2" cy="92" r="28.2" fill="#fff"/><circle cx="200.8" cy="92" r="28.2" fill="#fff"/><circle cx="87.2" cy="92" r="15.2" fill="#757575"/><circle cx="200.8" cy="92" r="15.2" fill="#757575"/><path d="M228.3 86.6h-56a28.2 28.2 0 0 1 56 0ZM115 86.6H59a28.2 28.2 0 0 1 56 0Z" fill="#CD9166"/></g><g transform="translate(127.7 288.7) scale(.71856)"></g><g transform="translate(193 279.4) scale(.71856)"><path d="M33.4 22c-7.1 9.5-12 31.5-7.8 33.5 4.2 2.1 10.4 0 17 0" stroke="#000" stroke-opacity=".5" stroke-width="4" stroke-linecap="round" stroke-linejoin="round"/></g><g transform="matrix(.52237 0 0 .52237 122.9 244.8)"><path d="M43.1 45C43 31.8 41.5 1 25.6 0 8 0 8.6 33.7 7.8 45c-.9 10-3.5 17.3 0 36.4C9.8 92.6 17.5 94 25.6 94c7.6 0 15.6-.9 17.5-9.6 4-18 .3-26.2 0-39.4Z" fill="#2c1b18"/></g><g transform="matrix(-.52237 0 0 .52237 315.7 244.8)"><path d="M43.1 45C43 31.8 41.5 1 25.6 0 8 0 8.6 33.7 7.8 45c-.9 10-3.5 17.3 0 36.4C9.8 92.6 17.5 94 25.6 94c7.6 0 15.6-.9 17.5-9.6 4-18 .3-26.2 0-39.4Z" fill="#2c1b18"/></g><g transform="matrix(.52237 0 0 .52237 108.7 145.6)"><path d="M375 133c6.5 15.9 11.5 34.5 11.5 70-11 0-47.9-4.6-107.3-23-59.5-18.4-101.6-50-114.7-69.5.3 6 0 34-19.7 55A124.2 124.2 0 0 1 39 203c0-23.1 2-46 10.9-67.4A176 176 0 0 1 212 27a175 175 0 0 1 124 51.5c16.4 16.4 30.2 33.1 39 54.5Z" fill="#2c1b18"/></g></g></svg>