<svg xmlns="http://www.w3.org/2000/svg" viewBox="0 0 96 96" width="96" height="96"><defs><linearGradient id="g" gradientTransform="rotate(179 .5 .5)"><stop offset="0" stop-color="#fde68a"/><stop offset="1" stop-color="#bae6fd"/></linearGradient></defs><rect width="96" height="96" fill="url(#g)"/><g transform="translate(24 24) scale(2)" fill="none" stroke="#9f1239" stroke-width="1.8" stroke-linecap="round" stroke-linejoin="round">
  
  <path d="M8 16l-1.447 .724a1 1 0 0 0 -.553 .894v2.382h12v-2.382a1 1 0 0 0 -.553 -.894l-1.447 -.724h-8z" />
  <path d="M9 3l1 3l-3.491 2.148a1 1 0 0 0 .524 1.852h2.967l-2.073 6h7.961l.112 -5c0 -3 -1.09 -5.983 -4 -7c-1.94 -.678 -2.94 -1.011 -3 -1z" />
</g></svg>