<svg xmlns="http://www.w3.org/2000/svg" viewBox="0 0 96 96" width="96" height="96"><defs><linearGradient id="g" gradientTransform="rotate(197 .5 .5)"><stop offset="0" stop-color="#b6e3f4"/><stop offset="1" stop-color="#c0aede"/></linearGradient></defs><rect width="96" height="96" fill="url(#g)"/><g transform="translate(20 20) scale(2.33)" fill="none" stroke="#15803d" stroke-width="1.7" stroke-linecap="round" stroke-linejoin="round">
  
  <path d="M12 13l-2 -2" />
  <path d="M12 12l2 -2" />
  <path d="M12 21v-13" />
  <path d="M9.824 16a3 3 0 0 1 -2.743 -3.69a3 3 0 0 1 .304 -4.833a3 3 0 0 1 4.615 -3.707a3 3 0 0 1 4.614 3.707a3 3 0 0 1 .305 4.833a3 3 0 0 1 -2.919 3.695h-4z" />
</g></svg>